<?xml version="1.0" standalone="no"?>
<!DOCTYPE svg PUBLIC "-//W3C//DTD SVG 20010904//EN"
 "http://www.w3.org/TR/2001/REC-SVG-20010904/DTD/svg10.dtd">
<svg version="1.0" xmlns="http://www.w3.org/2000/svg"
 width="225.000000pt" height="225.000000pt" viewBox="0 0 225.000000 225.000000"
 preserveAspectRatio="xMidYMid meet">
<metadata>
Created by potrace 1.10, written by Peter Selinger 2001-2011
</metadata>
<g transform="translate(0.000000,225.000000) scale(0.100000,-0.100000)"
fill="#f40057" stroke="none">
<path d="M193 2182 c-13 -2 -24 -9 -25 -15 -1 -7 -2 -109 -2 -227 l-1 -215
-42 -1 c-24 -1 -49 -7 -58 -14 -39 -32 2 -82 60 -73 26 4 35 1 42 -13 4 -11 7
-106 5 -211 l-3 -193 -37 0 c-51 0 -84 -24 -80 -58 3 -25 7 -27 61 -30 l57 -3
0 -207 c0 -149 -3 -211 -12 -220 -7 -7 -26 -12 -44 -12 -47 0 -64 -9 -64 -35
0 -31 18 -43 70 -47 l45 -3 1 -202 c1 -150 5 -207 14 -218 11 -14 41 -16 196
-14 100 1 187 -2 193 -5 6 -4 8 -20 4 -36 -7 -36 10 -60 43 -60 27 0 44 26 44
70 l0 30 208 -2 207 -3 3 -37 c4 -46 32 -66 69 -49 20 9 23 17 21 48 l-3 38
215 0 215 0 3 -37 c4 -44 23 -62 56 -54 24 6 36 30 36 74 l0 22 233 0 c168 0
236 3 245 12 16 16 15 53 -2 67 -11 9 -246 12 -931 11 -504 -1 -919 1 -923 4
-3 3 35 48 84 99 49 51 101 107 117 124 27 31 28 32 63 17 46 -19 85 -7 135
42 l36 35 84 -26 c46 -14 95 -29 108 -33 15 -4 34 -26 50 -56 28 -51 76 -85
122 -86 36 0 93 30 119 63 36 45 37 96 5 154 l-28 50 36 77 c21 42 37 79 37
82 0 3 6 20 14 37 28 64 67 167 72 197 4 17 10 33 15 36 13 7 49 -15 49 -30 0
-20 35 -124 63 -187 39 -88 41 -111 15 -144 -32 -40 -32 -120 0 -160 37 -47
72 -65 125 -65 42 0 53 5 89 39 38 35 42 43 46 99 l4 62 89 82 c67 62 89 89
89 108 0 31 -17 50 -43 50 -19 0 -32 -12 -129 -118 -59 -64 -67 -68 -96 -53
-9 6 -29 12 -44 15 -21 5 -30 16 -43 53 -18 50 -21 58 -54 137 -12 27 -21 52
-21 57 0 4 -14 37 -31 74 -47 101 -47 123 -7 207 38 80 93 211 103 244 10 37
52 74 83 74 29 0 68 33 92 79 12 24 12 24 150 18 148 -5 180 2 180 43 0 40
-32 48 -174 42 l-134 -5 -43 46 c-72 75 -169 75 -226 0 -37 -48 -39 -130 -5
-166 29 -31 28 -45 -11 -130 -18 -40 -39 -92 -46 -117 -22 -77 -30 -90 -51
-90 -11 0 -22 6 -24 13 -22 82 -39 136 -46 152 -32 71 -120 304 -120 317 0 9
7 21 15 28 8 7 20 29 26 50 21 70 -24 144 -103 170 -104 33 -219 -84 -174
-177 18 -38 21 -79 6 -88 -8 -5 -238 -347 -304 -452 -25 -41 -28 -43 -75 -43
-55 0 -44 -10 -158 145 -37 50 -69 92 -73 95 -3 3 -32 39 -64 80 l-58 75 2
220 c2 121 2 225 1 232 -2 17 -32 30 -58 25z m955 -208 c44 -31 17 -104 -39
-104 -57 0 -78 89 -26 110 32 13 40 12 65 -6z m517 -179 c30 -29 32 -54 5 -83
-26 -27 -54 -28 -80 -2 -26 26 -25 51 1 84 26 32 43 33 74 1z m-533 -14 c3 -3
20 -44 36 -91 40 -114 140 -366 163 -412 24 -47 24 -81 0 -132 -57 -125 -74
-164 -120 -278 -28 -69 -51 -128 -51 -132 0 -24 -43 -64 -76 -71 -22 -4 -48
-19 -64 -37 -32 -35 -33 -35 -170 2 -94 26 -110 34 -110 59 0 23 -58 78 -97
91 -63 22 -149 -22 -175 -89 -5 -14 -6 -48 -3 -75 l6 -51 -66 -75 c-37 -41
-81 -94 -98 -118 -41 -57 -62 -53 -61 13 5 198 3 997 -2 1073 -7 94 -7 94 16
90 16 -2 35 -23 62 -68 22 -36 66 -97 99 -137 32 -39 59 -76 59 -83 0 -6 -8
-27 -19 -48 -18 -36 -18 -39 -1 -77 50 -115 169 -142 247 -56 40 43 48 86 28
144 l-15 45 144 215 c80 118 154 233 165 255 12 23 29 45 38 51 17 10 51 6 65
-8z m-508 -553 c30 -13 39 -36 31 -71 -13 -49 -80 -53 -105 -7 -14 27 3 77 28
83 10 3 18 5 19 6 1 0 13 -4 27 -11z m20 -544 c31 -30 12 -101 -27 -105 -42
-4 -67 19 -67 62 0 34 24 59 55 59 13 0 31 -7 39 -16z m1012 8 c13 -9 34 -46
34 -62 0 -16 -47 -60 -65 -60 -23 0 -55 37 -55 65 0 44 53 79 86 57z m-509
-110 c33 -21 32 -82 -1 -104 -24 -17 -66 -8 -82 17 -34 52 30 121 83 87z"/>
</g>
</svg>
