<?xml version="1.0" standalone="no"?>
<!DOCTYPE svg PUBLIC "-//W3C//DTD SVG 20010904//EN"
 "http://www.w3.org/TR/2001/REC-SVG-20010904/DTD/svg10.dtd">
<svg version="1.0" xmlns="http://www.w3.org/2000/svg"
 width="273.000000pt" height="246.000000pt" viewBox="0 0 273.000000 246.000000"
 preserveAspectRatio="xMidYMid meet">
<metadata>
Created by potrace 1.10, written by Peter Selinger 2001-2011
</metadata>
<g transform="translate(0.000000,246.000000) scale(0.100000,-0.100000)"
fill="#f40057" stroke="none">
<path d="M1393 2369 c-100 -18 -182 -54 -265 -116 -50 -38 -75 -64 -168 -174
-24 -28 -27 -29 -65 -18 -23 7 -73 9 -116 6 -168 -11 -308 -127 -360 -297
l-21 -69 -56 -16 c-133 -39 -230 -134 -272 -267 -61 -195 36 -404 227 -487 54
-23 73 -26 263 -31 163 -5 210 -4 228 7 23 14 30 57 11 69 -7 4 -98 6 -203 5
-212 -2 -248 4 -330 59 -48 33 -82 74 -111 135 -27 55 -27 193 0 250 50 106
129 169 235 189 40 8 76 18 80 23 5 4 13 36 19 71 32 200 234 329 421 267 28
-9 57 -15 64 -12 7 3 34 37 60 76 47 71 149 171 173 171 7 0 13 3 13 8 0 7 58
36 130 63 55 22 272 19 335 -4 79 -29 146 -65 179 -97 16 -17 33 -30 37 -30
10 0 99 -115 99 -127 0 -5 10 -19 23 -31 21 -20 25 -21 45 -6 23 16 29 56 12
77 -5 7 -36 44 -69 83 -153 183 -382 266 -618 223z"/>
<path d="M1404 1955 c-51 -22 -94 -82 -94 -130 0 -76 67 -145 141 -145 45 0
110 45 129 89 16 39 8 101 -16 136 -18 25 -92 66 -117 64 -7 0 -26 -7 -43 -14z
m89 -106 c16 -26 0 -68 -29 -75 -46 -12 -85 51 -52 84 17 17 68 11 81 -9z"/>
<path d="M2092 1844 c-12 -21 -3 -195 11 -211 6 -8 35 -13 77 -13 125 0 225
-50 285 -144 106 -166 45 -375 -135 -464 l-55 -27 -318 -2 c-329 -2 -347 -4
-347 -43 0 -41 17 -43 338 -41 234 2 319 6 358 17 170 49 294 210 294 383 0
205 -167 388 -358 395 -61 2 -72 12 -72 73 0 62 -15 93 -44 93 -14 0 -29 -7
-34 -16z"/>
<path d="M741 1606 c-31 -17 -81 -93 -81 -123 0 -71 71 -143 142 -143 36 0 41
-4 74 -57 20 -32 45 -70 55 -85 18 -26 19 -45 17 -265 l-3 -238 -422 -1 c-233
-1 -430 -4 -438 -8 -18 -7 -20 -52 -3 -62 7 -5 211 -10 453 -12 379 -3 443 -1
460 11 19 14 20 30 25 259 3 134 2 264 -2 290 -4 31 -20 68 -45 103 -73 107
-70 97 -44 153 23 50 23 51 6 94 -27 68 -68 98 -132 98 -21 -1 -49 -7 -62 -14z
m101 -93 c24 -21 23 -44 -3 -72 -26 -28 -59 -24 -78 10 -13 24 -13 29 2 53 20
30 52 34 79 9z"/>
<path d="M1130 1613 c-43 -16 -90 -90 -90 -142 0 -23 13 -44 50 -83 l50 -52 0
-428 c0 -330 -3 -429 -12 -435 -7 -4 -104 -6 -214 -4 l-201 3 -17 -23 c-15
-22 -15 -25 2 -42 16 -16 43 -18 225 -23 114 -4 218 -4 230 0 12 3 32 15 45
26 l22 21 0 454 0 455 28 17 c15 10 33 26 41 37 37 50 40 51 171 50 110 -1
126 -4 135 -20 5 -10 25 -34 43 -51 29 -28 40 -33 83 -33 44 0 55 4 92 39 41
38 42 42 42 100 -1 57 -3 64 -37 97 -65 65 -160 56 -207 -20 l-22 -35 -122 -3
c-67 -2 -129 0 -139 4 -9 4 -26 23 -37 42 -29 47 -105 70 -161 49z m94 -99
c20 -20 20 -43 0 -72 -20 -29 -58 -28 -78 3 -20 31 -20 44 1 67 20 22 56 23
77 2z m530 0 c22 -21 20 -50 -4 -74 -24 -24 -29 -24 -58 -4 -14 10 -22 26 -22
44 0 45 52 66 84 34z"/>
<path d="M1360 1290 c-41 -40 -50 -55 -50 -84 0 -50 25 -97 71 -129 l39 -28
-1 -196 c-1 -177 1 -197 18 -214 15 -16 42 -20 174 -25 188 -8 209 -5 209 36
0 16 -6 32 -12 37 -7 4 -80 8 -163 8 l-150 0 -3 181 -2 181 39 27 c72 50 82
145 23 206 -32 32 -69 50 -105 50 -32 0 -45 -7 -87 -50z m136 -65 c31 -48 -12
-97 -67 -75 -36 15 -45 44 -25 75 11 17 26 25 46 25 20 0 35 -8 46 -25z"/>
<path d="M1984 687 c-22 -12 -17 -55 9 -70 17 -11 45 -12 132 -5 61 4 187 5
281 2 95 -3 181 -3 192 0 25 8 34 40 18 62 -11 14 -46 16 -315 18 -166 0 -309
-3 -317 -7z"/>
<path d="M160 549 c-45 -18 -79 -60 -85 -103 -8 -52 6 -89 47 -127 28 -25 40
-29 88 -29 57 1 99 24 113 63 9 26 53 38 108 31 86 -11 126 16 98 67 -10 20
-16 21 -92 15 l-82 -7 -40 46 c-34 38 -47 46 -85 50 -25 3 -56 0 -70 -6z m94
-91 c21 -30 20 -44 -4 -68 -39 -39 -90 -17 -90 39 0 48 66 69 94 29z"/>
<path d="M1376 540 c-118 -77 -61 -250 81 -250 43 0 50 4 90 46 l43 47 284 0
283 0 46 -47 c43 -42 50 -46 96 -46 45 0 53 4 98 48 l48 47 74 -3 c58 -2 78 1
92 14 24 22 24 36 -1 59 -17 15 -30 17 -93 11 l-73 -6 -32 39 c-60 75 -157 79
-217 8 l-35 -41 -287 1 -287 1 -31 35 c-16 19 -40 40 -52 46 -34 17 -95 13
-127 -9z m116 -77 c24 -21 23 -48 -2 -73 -23 -23 -49 -26 -72 -7 -28 21 -31
54 -9 76 25 25 58 27 83 4z m853 -3 c25 -28 10 -71 -28 -84 -34 -12 -58 0 -71
37 -12 34 15 67 54 67 15 0 35 -9 45 -20z"/>
<path d="M667 293 c-15 -16 -33 -37 -41 -47 -13 -19 -29 -20 -277 -21 -228 -2
-264 -4 -273 -18 -7 -10 -6 -24 2 -42 l12 -26 262 2 c262 2 262 2 277 -21 40
-57 62 -70 120 -70 46 0 61 5 83 25 14 13 29 34 33 45 3 11 14 20 23 20 9 0
397 0 861 0 777 0 845 1 862 16 23 21 24 37 2 55 -13 12 -161 14 -869 15
l-853 0 -44 47 c-42 45 -46 47 -99 47 -47 0 -59 -4 -81 -27z m123 -73 c11 -11
20 -27 20 -35 0 -21 -36 -55 -58 -55 -26 0 -62 28 -62 48 0 29 30 62 56 62 13
0 33 -9 44 -20z"/>
</g>
</svg>
