<?xml version="1.0" standalone="no"?>
<!DOCTYPE svg PUBLIC "-//W3C//DTD SVG 20010904//EN"
 "http://www.w3.org/TR/2001/REC-SVG-20010904/DTD/svg10.dtd">
<svg version="1.0" xmlns="http://www.w3.org/2000/svg"
 width="249.000000pt" height="243.000000pt" viewBox="0 0 249.000000 243.000000"
 preserveAspectRatio="xMidYMid meet">
<metadata>
Created by potrace 1.10, written by Peter Selinger 2001-2011
</metadata>
<g transform="translate(0.000000,243.000000) scale(0.100000,-0.100000)"
fill="#f40057" stroke="none">
<path d="M720 2312 c-52 -25 -94 -66 -120 -119 l-23 -47 6 -353 c6 -331 5
-353 -11 -362 -38 -20 -47 2 -44 100 3 111 -8 132 -67 123 -34 -5 -38 -2 -78
50 -46 60 -81 74 -147 62 -51 -10 -126 -96 -126 -143 0 -65 54 -127 132 -152
32 -11 42 -9 77 8 22 12 54 41 71 66 32 47 37 50 58 36 10 -6 12 -33 10 -105
-3 -110 2 -120 64 -111 47 7 68 -13 68 -65 0 -68 -2 -70 -100 -70 -88 0 -88 0
-114 33 -57 71 -67 77 -126 77 -68 0 -122 -33 -145 -87 -19 -44 -19 -71 -1
-114 22 -53 87 -99 141 -99 36 0 103 45 127 86 l20 35 97 -3 96 -3 3 -50 c3
-66 -6 -79 -59 -77 -69 3 -79 -14 -72 -114 4 -60 2 -88 -7 -99 -20 -24 -35
-18 -59 26 -55 96 -158 106 -237 21 -50 -53 -54 -100 -12 -162 69 -103 177
-105 248 -6 31 42 37 46 76 46 58 0 69 20 61 120 -7 85 0 103 34 98 l24 -3 0
-370 0 -370 26 -40 c31 -47 80 -87 128 -103 49 -17 968 -17 1025 0 57 17 131
93 146 149 9 32 11 137 6 387 -5 311 -4 343 10 349 38 14 49 -10 49 -103 0
-49 4 -95 8 -101 5 -7 24 -13 44 -13 31 0 44 -8 92 -60 52 -55 60 -60 99 -60
71 0 125 39 156 113 14 35 14 42 -1 80 -44 113 -154 142 -242 63 -13 -11 -27
-31 -32 -44 -11 -28 -35 -38 -54 -22 -12 10 -13 29 -8 101 7 106 0 119 -62
119 -54 0 -67 16 -63 77 l3 48 92 3 93 3 32 -45 c31 -45 84 -76 130 -76 21 0
90 37 96 52 2 5 11 16 20 25 25 25 23 130 -3 164 -31 41 -71 59 -129 59 -56 0
-51 4 -138 -91 -15 -16 -32 -19 -98 -19 -87 0 -100 9 -100 65 0 48 16 65 64
65 63 0 70 13 63 120 -6 85 -6 90 15 101 19 10 24 9 37 -11 32 -46 79 -89 104
-96 70 -17 154 33 175 103 32 106 -69 212 -177 188 -20 -4 -47 -25 -76 -58
-38 -43 -51 -52 -82 -53 -53 -3 -64 -23 -57 -105 9 -94 1 -119 -36 -119 l-30
0 6 348 c5 243 3 359 -5 388 -15 54 -72 119 -128 144 -44 19 -65 20 -537 19
-439 0 -495 -2 -526 -17z m1059 -86 c42 -38 58 -79 64 -161 3 -44 2 -86 -2
-93 -11 -19 -1170 -19 -1183 0 -13 18 0 165 16 197 18 33 55 68 81 74 11 3
241 4 511 4 471 -2 493 -3 513 -21z m56 -350 c8 -3 10 -193 9 -642 -1 -352 -2
-642 -3 -646 0 -5 -264 -8 -585 -8 -455 0 -586 3 -594 13 -15 18 -11 1275 5
1285 11 7 1149 6 1168 -2z m-1518 -208 c32 -37 35 -46 18 -77 -19 -37 -48 -54
-78 -45 -37 11 -57 35 -57 70 0 65 75 98 117 52z m1962 -4 c12 -15 21 -37 21
-49 0 -24 -51 -75 -75 -75 -7 0 -27 12 -44 26 -38 32 -40 66 -6 99 33 34 77
33 104 -1z m-1984 -419 c30 -29 31 -61 6 -94 -39 -51 -131 -22 -131 41 0 36
40 78 75 78 14 0 37 -11 50 -25z m2004 -1 c36 -30 39 -59 10 -93 -39 -47 -115
-26 -134 37 -5 17 1 29 24 52 36 37 60 38 100 4z m-1984 -419 c31 -30 32 -71
3 -102 -27 -29 -65 -29 -95 -1 -33 30 -31 80 3 107 35 27 59 26 89 -4z m1968
-7 c23 -28 22 -67 -5 -95 -29 -31 -72 -30 -103 2 -34 33 -32 67 7 100 36 30
71 28 101 -7z m-444 -323 c6 -3 8 -53 4 -128 -5 -106 -8 -127 -29 -157 -49
-73 -27 -70 -567 -70 l-484 0 -40 29 c-22 16 -45 42 -50 57 -15 37 -25 258
-13 270 10 10 1163 9 1179 -1z"/>
<path d="M1228 2153 c-160 -3 -168 -5 -179 -25 -22 -41 7 -48 201 -48 176 0
200 4 200 36 0 17 -29 45 -43 42 -7 -1 -87 -4 -179 -5z"/>
<path d="M1170 1730 c-125 -23 -236 -90 -311 -187 -76 -99 -93 -155 -93 -303
-1 -123 0 -126 35 -200 43 -89 80 -137 148 -191 137 -109 328 -132 498 -61 85
35 205 149 246 234 63 132 63 305 0 435 -33 67 -115 159 -181 203 -86 57 -241
89 -342 70z m228 -102 c102 -38 201 -138 242 -245 29 -74 32 -195 6 -268 -40
-118 -156 -234 -270 -269 -44 -14 -79 -17 -149 -14 -120 6 -186 35 -268 117
-68 68 -103 135 -120 232 -28 155 51 322 196 414 44 28 76 40 160 59 37 8 149
-6 203 -26z"/>
<path d="M1116 1428 c-17 -41 -40 -113 -62 -198 -9 -36 -21 -70 -26 -77 -17
-21 -25 -68 -17 -91 13 -35 59 -27 72 13 16 50 26 56 86 53 l56 -3 15 -42 c12
-36 19 -43 42 -43 43 0 48 50 12 119 -8 14 -14 33 -14 41 0 15 -54 197 -70
238 -7 17 -18 22 -45 22 -30 0 -37 -5 -49 -32z m81 -153 c23 -81 23 -80 -27
-80 l-45 0 3 49 c7 99 46 116 69 31z"/>
<path d="M1420 1441 c-11 -21 -14 -340 -4 -378 7 -25 42 -31 62 -11 17 17 17
379 0 396 -18 18 -46 14 -58 -7z"/>
</g>
</svg>
