<?xml version="1.0" standalone="no"?>
<!DOCTYPE svg PUBLIC "-//W3C//DTD SVG 20010904//EN"
 "http://www.w3.org/TR/2001/REC-SVG-20010904/DTD/svg10.dtd">
<svg version="1.0" xmlns="http://www.w3.org/2000/svg"
 width="261.000000pt" height="261.000000pt" viewBox="0 0 261.000000 261.000000"
 preserveAspectRatio="xMidYMid meet">
<metadata>
Created by potrace 1.10, written by Peter Selinger 2001-2011
</metadata>
<g transform="translate(0.000000,261.000000) scale(0.100000,-0.100000)"
fill="#f40057" stroke="none">
<path d="M1436 2513 c-36 -10 -94 -52 -122 -88 -15 -20 -135 -137 -266 -262
-143 -135 -247 -241 -258 -264 -24 -46 -26 -119 -5 -160 21 -39 16 -46 -99
-157 -53 -50 -96 -98 -96 -105 0 -36 70 -63 87 -33 4 7 42 51 83 96 41 45 76
86 78 91 6 15 34 10 55 -8 14 -14 37 -18 92 -18 68 0 75 2 121 38 27 21 116
102 198 180 82 78 155 146 163 150 18 11 59 -15 82 -53 9 -16 48 -62 86 -102
83 -88 95 -109 95 -168 0 -25 7 -55 15 -67 13 -18 15 -60 13 -255 l-3 -233
-55 0 -55 0 -3 -117 -3 -118 -35 0 c-25 0 -37 -5 -42 -19 -4 -11 -5 -167 -2
-348 3 -180 1 -334 -4 -340 -6 -10 -89 -13 -352 -13 -321 0 -344 1 -344 18 -1
9 -1 166 0 348 1 362 2 358 -57 352 -26 -3 -28 0 -31 34 -3 31 0 38 15 40 10
1 25 2 33 4 8 1 21 2 28 3 7 1 12 15 12 36 0 36 -2 38 -54 39 -23 1 -33 9 -53
48 -54 103 -106 120 -348 116 l-180 -3 0 -65 c-1 -89 0 -87 -46 -95 -38 -7
-40 -9 -37 -38 3 -29 7 -32 43 -37 38 -5 40 -7 43 -42 3 -35 1 -38 -23 -38
-14 0 -35 -5 -46 -11 -19 -10 -20 -20 -17 -352 l3 -341 -31 -6 c-43 -9 -54
-18 -54 -43 1 -50 -63 -47 1225 -47 897 0 1212 3 1222 12 8 6 13 23 11 36 -2
20 -12 28 -43 36 l-40 12 -1 342 c-1 188 -4 345 -7 348 -3 4 -21 9 -39 13
l-33 7 0 115 0 114 -53 1 c-29 1 -56 5 -60 8 -3 4 -5 108 -3 232 2 186 6 230
19 257 24 46 22 160 -3 212 -11 22 -56 76 -100 120 -45 44 -126 131 -180 193
-54 63 -116 132 -137 154 -21 22 -49 63 -63 92 -25 52 -66 97 -120 131 -22 14
-52 20 -115 21 -47 2 -94 0 -104 -3z m159 -82 c52 -23 94 -68 116 -123 24 -57
23 -81 -2 -131 -31 -62 -76 -105 -132 -123 -42 -14 -55 -14 -95 -3 -89 25
-175 148 -156 225 17 72 74 136 142 160 50 18 80 17 127 -5z m-335 -231 c0
-46 38 -118 81 -152 22 -17 39 -37 39 -44 0 -7 -19 -26 -42 -43 -23 -17 -93
-79 -156 -138 -141 -132 -156 -143 -208 -143 -32 0 -49 7 -79 33 -36 32 -39
37 -39 91 l-1 57 185 183 c102 101 193 184 203 185 13 1 17 -7 17 -29z m562
-19 c5 -16 79 -101 126 -145 23 -22 42 -46 42 -53 0 -17 -33 -33 -67 -33 -45
0 -108 -44 -146 -103 -24 -37 -40 -34 -79 15 -18 24 -46 54 -61 67 -36 31 -33
62 8 73 42 10 109 83 130 141 16 43 38 61 47 38z m241 -300 c38 -15 96 -70
118 -112 47 -94 -3 -212 -110 -260 -53 -23 -86 -24 -137 -3 -74 30 -134 113
-134 183 0 127 149 235 263 192z m-177 -435 c8 -8 38 -20 68 -26 59 -12 124
-1 158 28 9 7 25 12 35 10 17 -3 18 -15 14 -178 -2 -96 -7 -177 -11 -180 -13
-8 -285 -4 -299 5 -10 5 -12 31 -8 99 3 50 2 125 -2 166 -5 41 -6 78 -4 83 7
12 33 8 49 -7z m-1246 -366 c31 -16 40 -26 40 -45 l0 -25 -192 2 c-190 3 -193
3 -196 25 -2 12 2 31 8 42 10 20 20 21 156 21 126 0 150 -3 184 -20z m1628
-74 c15 -9 16 -132 2 -141 -14 -9 -526 -9 -539 0 -10 6 -16 137 -7 146 8 7
532 3 544 -5z m-1570 -79 c15 -16 15 -20 2 -45 l-16 -27 -179 0 c-99 0 -188 3
-197 8 -10 4 -18 19 -18 32 0 45 23 50 214 49 153 0 179 -3 194 -17z m73 -248
c6 -115 -1 -144 -32 -134 -27 9 -49 -12 -49 -46 0 -29 9 -34 52 -30 9 1 20 -3
24 -10 8 -13 12 -296 4 -309 -3 -4 -126 -7 -275 -6 l-270 1 -1 153 c-1 101 3
155 10 160 6 3 94 7 196 7 l185 0 0 40 0 40 -190 -1 c-126 0 -192 3 -197 10
-11 16 -10 210 2 222 5 5 117 8 272 8 l263 -2 6 -103z m1576 98 c3 -3 6 -146
6 -317 2 -303 2 -311 -18 -316 -11 -2 -171 -3 -355 -2 l-335 3 -3 309 c-1 180
2 313 7 320 7 8 109 11 351 9 188 -1 344 -4 347 -6z"/>
<path d="M1930 688 c-130 -37 -204 -189 -151 -309 44 -99 117 -149 219 -149
104 0 190 60 225 157 22 62 22 90 -4 157 -43 116 -168 179 -289 144z m40 -103
c4 -24 10 -30 30 -30 20 0 26 6 30 30 7 39 41 46 64 13 16 -22 15 -24 -10 -44
-16 -13 -25 -29 -22 -40 3 -16 13 -19 53 -19 49 0 50 -1 50 -30 0 -28 -2 -30
-40 -30 -22 -1 -46 -4 -53 -9 -20 -12 -14 -36 13 -48 32 -14 32 -45 1 -60 -34
-15 -54 -5 -58 29 -2 22 -9 29 -30 31 -25 3 -28 0 -28 -27 0 -35 -12 -45 -46
-37 -31 8 -34 55 -4 63 24 6 26 35 5 53 -12 10 -21 10 -41 1 -14 -6 -27 -11
-29 -11 -11 0 -25 43 -20 61 6 17 14 19 53 17 42 -3 47 -1 50 19 2 14 -4 26
-17 33 -38 20 -18 74 24 68 13 -2 22 -13 25 -33z"/>
<path d="M346 1497 c-38 -28 -14 -97 34 -97 36 0 62 55 42 87 -12 19 -55 25
-76 10z"/>
<path d="M423 1373 c-7 -2 -13 -20 -13 -39 0 -43 30 -61 73 -45 21 8 27 17 27
39 0 15 -5 33 -12 40 -12 12 -52 15 -75 5z"/>
<path d="M857 1373 c-12 -11 -8 -68 5 -81 18 -18 53 -15 71 6 20 22 22 53 5
70 -13 13 -70 17 -81 5z"/>
<path d="M695 1290 c-36 -39 3 -89 62 -78 22 4 31 62 12 84 -16 20 -53 17 -74
-6z"/>
</g>
</svg>
