<?xml version="1.0" standalone="no"?>
<!DOCTYPE svg PUBLIC "-//W3C//DTD SVG 20010904//EN"
 "http://www.w3.org/TR/2001/REC-SVG-20010904/DTD/svg10.dtd">
<svg version="1.0" xmlns="http://www.w3.org/2000/svg"
 width="237.000000pt" height="237.000000pt" viewBox="0 0 237.000000 237.000000"
 preserveAspectRatio="xMidYMid meet">
<metadata>
Created by potrace 1.10, written by Peter Selinger 2001-2011
</metadata>
<g transform="translate(0.000000,237.000000) scale(0.100000,-0.100000)"
fill="#f40057" stroke="none">
<path d="M320 2225 c-14 -8 -33 -16 -43 -19 -17 -5 -25 -21 -43 -79 -9 -30
-40 -52 -87 -62 -18 -4 -31 -15 -37 -33 -6 -15 -15 -35 -20 -44 -17 -30 -12
-83 10 -103 27 -24 25 -48 -6 -95 l-26 -39 21 -41 c30 -59 32 -18 -18 -650
-12 -159 17 -228 119 -281 66 -34 111 -29 231 26 57 26 116 50 132 52 l27 5
-6 -53 c-7 -65 10 -111 55 -152 32 -28 40 -55 19 -61 -7 -2 -56 -16 -108 -30
-198 -55 -234 -68 -274 -95 -54 -38 -96 -113 -96 -174 0 -81 52 -166 125 -205
37 -19 190 -19 570 3 143 8 305 17 360 19 55 1 190 9 299 17 154 10 201 10
204 1 12 -37 39 -54 89 -55 50 -2 55 0 100 45 51 51 74 57 131 37 36 -12 60
-3 110 44 37 35 38 45 16 108 -21 57 -15 83 31 134 22 26 35 50 35 69 0 41
-53 104 -95 112 -19 3 -39 11 -44 18 -5 6 -11 91 -12 188 l-3 177 32 40 c32
39 41 74 23 86 -6 3 -24 30 -41 61 -46 79 -39 95 60 141 l80 38 0 78 0 78 -75
35 c-54 25 -79 42 -85 60 -14 35 -14 33 30 102 22 33 40 67 40 73 0 12 -75
115 -92 125 -4 3 -42 -2 -84 -12 -107 -23 -119 -16 -134 78 -16 99 -17 103
-43 115 -62 29 -99 43 -109 43 -6 0 -39 -29 -73 -65 -41 -44 -68 -65 -84 -65
-17 0 -43 20 -84 65 -56 61 -88 78 -102 55 -3 -5 -23 -14 -45 -20 -28 -7 -44
-20 -59 -46 -19 -31 -25 -35 -49 -30 -15 4 -117 11 -227 17 -110 6 -212 15
-227 21 -21 8 -31 21 -40 52 -14 48 -35 76 -58 76 -9 0 -25 7 -36 15 -24 18
-70 19 -77 1 -3 -7 -19 -18 -36 -24 -26 -9 -35 -7 -66 14 -40 27 -67 29 -105
9z m90 -90 c16 -19 90 -20 116 0 20 15 62 19 81 7 6 -4 15 -21 18 -37 10 -42
62 -94 103 -101 48 -9 59 -44 32 -96 -24 -46 -26 -87 -5 -114 8 -10 15 -36 15
-56 0 -34 -3 -37 -44 -53 -52 -20 -79 -46 -101 -97 -21 -52 -43 -62 -88 -38
-46 25 -87 25 -132 1 -49 -26 -72 -17 -100 38 -27 54 -41 68 -99 96 -47 23
-58 59 -32 97 21 29 20 88 -1 132 -13 29 -14 40 -5 61 6 14 19 25 28 25 37 0
87 43 110 97 22 49 26 53 58 53 18 0 39 -7 46 -15z m1014 -135 c52 -53 63 -60
98 -60 52 0 74 12 129 73 43 48 48 51 75 42 27 -10 30 -16 35 -70 8 -84 15
-100 58 -135 44 -34 85 -38 148 -16 32 11 45 12 64 2 36 -17 34 -47 -6 -107
-21 -32 -35 -66 -35 -84 0 -46 40 -95 105 -129 100 -53 100 -81 0 -126 -57
-26 -68 -35 -85 -72 -28 -61 -25 -86 15 -147 40 -60 43 -84 15 -104 -17 -12
-28 -11 -81 1 -80 20 -122 9 -162 -40 -24 -30 -31 -50 -35 -95 -8 -106 -48
-120 -113 -38 -48 59 -80 72 -147 62 -29 -5 -49 -19 -87 -62 -27 -31 -58 -55
-67 -55 -27 0 -48 40 -48 92 0 62 -15 92 -62 124 -39 27 -40 28 -113 15 -119
-20 -143 9 -83 98 59 87 33 179 -62 216 -105 41 -108 84 -10 131 76 38 100 70
100 135 0 35 -7 56 -30 87 -35 49 -38 72 -10 97 18 16 22 16 66 1 74 -25 103
-21 152 22 41 35 43 40 51 110 11 113 39 120 125 32z m-354 -15 c152 -8 162
-11 158 -37 -2 -12 -16 -30 -33 -39 -28 -16 -35 -16 -94 -3 -36 9 -74 13 -85
10 -23 -6 -96 -97 -96 -120 0 -8 4 -17 9 -20 5 -3 18 -24 29 -45 12 -22 27
-49 34 -60 21 -35 -6 -70 -80 -101 -34 -14 -67 -31 -72 -36 -12 -12 -16 -157
-4 -161 39 -15 150 -82 158 -96 9 -13 4 -31 -24 -82 -19 -36 -38 -65 -42 -65
-18 0 -6 -45 20 -75 15 -18 35 -42 44 -54 21 -25 67 -28 128 -6 70 25 96 0
109 -104 5 -40 14 -78 20 -85 6 -7 39 -24 73 -36 l62 -22 62 66 c79 85 95 86
166 10 50 -53 55 -56 93 -51 22 2 57 11 77 20 31 13 38 22 43 54 25 154 40
172 127 151 l53 -13 6 -95 c8 -114 0 -131 -49 -106 -49 25 -68 20 -120 -34
l-49 -51 -79 7 -80 7 -32 -37 c-36 -41 -39 -64 -17 -125 17 -49 10 -72 -34
-118 -43 -44 -43 -95 0 -140 22 -25 39 -33 64 -33 35 0 69 -24 62 -44 -2 -7
-75 -13 -233 -17 -278 -6 -657 -26 -778 -40 -49 -5 -93 -6 -97 -2 -5 5 -2 20
5 35 47 91 41 170 -20 232 -35 36 -44 64 -21 70 231 66 346 104 377 123 17 11
47 42 66 68 29 42 34 56 34 107 0 117 -87 213 -204 225 -55 6 -66 2 -222 -73
-100 -48 -114 -44 -93 25 10 35 9 45 -13 93 -16 35 -42 68 -72 93 -44 36 -51
38 -116 39 -53 0 -73 -4 -89 -18 -25 -23 -57 -17 -54 9 2 11 7 49 13 85 5 36
10 117 10 180 0 133 5 160 30 160 24 0 42 -25 49 -68 5 -32 13 -41 56 -64 59
-33 82 -34 109 -9 33 31 71 31 106 1 30 -26 48 -25 106 4 39 20 53 34 74 78
19 40 32 55 55 62 43 12 58 20 65 37 4 8 15 28 24 46 21 41 20 69 -4 100 -26
33 -25 64 1 98 19 23 20 32 12 60 -6 19 -8 37 -4 40 3 4 29 5 56 1 28 -3 102
-8 165 -11z m-712 -909 c97 -88 44 -239 -83 -239 -78 0 -135 62 -135 147 0 39
5 50 36 80 20 19 46 37 57 39 40 8 102 -5 125 -27z m489 -144 c37 -20 66 -55
81 -99 27 -80 -51 -183 -140 -183 -120 0 -192 157 -111 242 53 56 114 70 170
40z m1104 -212 c10 -6 19 -17 19 -24 0 -32 63 -98 115 -121 76 -34 80 -47 39
-121 -36 -64 -42 -106 -22 -149 8 -19 8 -31 0 -50 -11 -24 -16 -25 -89 -25
l-78 0 -52 -45 c-60 -52 -74 -51 -105 8 -38 74 -58 94 -114 112 -64 20 -79 49
-47 93 36 51 46 89 39 153 -10 83 5 100 79 92 45 -5 60 -2 97 20 24 14 52 34
62 46 22 24 29 25 57 11z m-1490 -302 c100 -74 90 -210 -18 -259 -50 -23 -78
-20 -131 13 -41 25 -62 65 -62 118 0 54 22 94 67 125 48 32 103 33 144 3z"/>
<path d="M368 1998 c-116 -81 -115 -235 2 -310 40 -26 52 -29 106 -26 69 4
120 34 155 92 29 48 26 141 -6 189 -63 92 -171 115 -257 55z m140 -49 c33 -11
72 -63 72 -96 0 -72 -62 -130 -127 -120 -63 11 -110 73 -97 130 8 39 20 55 59
79 35 21 50 22 93 7z"/>
<path d="M1430 1806 c-109 -30 -194 -99 -241 -194 -30 -61 -34 -75 -34 -157 0
-82 3 -97 32 -155 36 -74 95 -135 168 -177 46 -26 58 -28 155 -28 127 0 174
19 256 101 205 207 120 520 -166 610 -54 17 -109 17 -170 0z m193 -85 c105
-45 166 -133 174 -252 5 -67 3 -83 -19 -130 -31 -67 -85 -121 -155 -154 -212
-100 -456 117 -389 347 20 71 91 152 161 184 64 31 163 33 228 5z"/>
<path d="M1447 1655 c-61 -23 -93 -52 -121 -107 -47 -94 -27 -191 53 -260 107
-91 262 -53 331 82 52 102 -9 238 -128 284 -51 19 -84 19 -135 1z m142 -82
c69 -52 86 -130 41 -195 -32 -47 -69 -68 -119 -68 -77 0 -141 61 -141 135 0
117 130 193 219 128z"/>
<path d="M764 860 c-23 -9 -54 -47 -54 -65 0 -22 51 -65 79 -65 32 0 71 37 71
67 0 44 -54 80 -96 63z"/>
<path d="M1793 584 c-63 -31 -93 -81 -93 -153 0 -86 84 -171 168 -171 38 0
112 29 138 55 24 24 44 82 44 130 0 45 -5 57 -36 93 -66 78 -131 91 -221 46z
m151 -67 c19 -18 38 -46 42 -62 10 -39 -20 -91 -69 -118 l-37 -21 -43 21 c-49
24 -83 79 -73 118 3 13 21 40 40 59 45 49 90 50 140 3z"/>
</g>
</svg>
