<?xml version="1.0" standalone="no"?>
<!DOCTYPE svg PUBLIC "-//W3C//DTD SVG 20010904//EN"
 "http://www.w3.org/TR/2001/REC-SVG-20010904/DTD/svg10.dtd">
<svg version="1.0" xmlns="http://www.w3.org/2000/svg"
 width="261.000000pt" height="258.000000pt" viewBox="0 0 261.000000 258.000000"
 preserveAspectRatio="xMidYMid meet">
<metadata>
Created by potrace 1.10, written by Peter Selinger 2001-2011
</metadata>
<g transform="translate(0.000000,258.000000) scale(0.100000,-0.100000)"
fill="#f40057" stroke="none">
<path d="M855 2471 c-11 -5 -26 -22 -34 -37 -7 -16 -18 -40 -25 -54 -7 -15
-42 -40 -91 -66 -77 -41 -137 -55 -150 -34 -3 6 -23 10 -44 10 -28 0 -44 -7
-66 -30 -25 -26 -28 -37 -27 -87 2 -66 -1 -71 -100 -189 -65 -77 -73 -84 -107
-84 -43 0 -75 -20 -96 -60 -18 -35 -6 -78 36 -120 29 -28 29 -30 29 -144 0
-112 -1 -116 -29 -148 -48 -56 -55 -76 -41 -119 9 -26 24 -46 47 -59 45 -27
57 -25 111 11 41 27 50 30 96 24 28 -4 65 -11 81 -15 17 -5 41 -12 55 -15 14
-3 37 -22 52 -44 18 -26 37 -41 58 -46 37 -8 56 -36 89 -132 23 -67 23 -71 8
-103 -25 -50 -22 -87 12 -121 35 -35 76 -38 123 -9 48 29 34 31 303 -49 49
-15 63 -24 77 -51 9 -18 31 -46 48 -61 l30 -28 1 -123 c2 -156 4 -146 -39
-191 -31 -32 -36 -43 -35 -79 3 -60 42 -98 100 -98 33 0 50 6 68 25 44 43 30
132 -27 173 -16 12 -18 30 -18 149 l0 136 35 38 c39 44 46 86 20 135 -19 36
-18 56 4 118 26 75 32 76 168 32 210 -69 219 -73 234 -109 7 -18 28 -46 46
-63 l33 -31 0 -195 0 -194 -35 -34 c-39 -38 -53 -86 -35 -121 33 -63 104 -78
152 -32 22 21 28 36 28 71 0 37 -6 50 -35 79 l-35 35 0 195 0 196 35 38 c26
29 35 48 35 73 0 47 26 75 183 202 98 79 136 104 152 100 11 -3 30 -9 41 -12
15 -4 32 4 58 26 30 27 36 39 36 72 0 33 -7 49 -38 82 l-37 41 2 120 c1 66 2
137 2 157 1 29 9 45 36 72 25 25 35 44 35 67 0 46 -34 87 -78 94 -20 3 -46 8
-57 10 -11 2 -43 35 -72 73 -29 38 -66 84 -83 103 -27 30 -30 39 -25 77 9 62
-8 104 -51 124 -32 14 -40 15 -70 2 -18 -8 -47 -14 -63 -14 -24 0 -164 61
-231 101 -8 5 -29 15 -47 23 -20 9 -33 24 -37 43 -12 50 -38 75 -89 80 -42 5
-48 3 -83 -31 l-37 -36 -218 0 -218 0 -35 35 c-36 36 -75 44 -121 26z m86 -51
c29 -16 24 -53 -11 -74 -29 -16 -33 -16 -55 -2 -27 18 -33 54 -13 74 15 15 53
16 79 2z m653 4 c22 -9 20 -57 -3 -78 -21 -19 -50 -15 -76 10 -41 42 17 92 79
68z m-134 -81 c0 -22 -10 -37 -32 -49 -9 -5 -49 -40 -88 -78 l-71 -70 -32 19
c-18 10 -37 24 -44 29 -7 6 -18 16 -25 21 -80 63 -97 75 -106 75 -17 0 -42 30
-42 51 0 18 9 19 220 19 203 0 220 -1 220 -17z m-600 -49 c31 -13 46 -14 71
-5 38 13 44 10 172 -86 72 -55 97 -79 97 -96 0 -28 -1 -29 -88 -110 -72 -67
-74 -68 -116 -62 -41 7 -46 4 -95 -39 l-52 -47 -131 3 c-152 3 -137 -10 -158
139 l-13 85 32 44 c17 24 31 51 31 60 0 9 9 25 21 36 19 17 166 93 181 94 4 0
26 -7 48 -16z m864 -12 c34 -16 81 -37 106 -47 25 -10 52 -25 61 -32 8 -7 21
-13 27 -13 18 0 52 -42 52 -64 -1 -27 -15 -42 -127 -144 l-92 -83 -78 -4 -79
-4 -75 55 c-41 31 -87 66 -104 80 -16 13 -42 33 -57 44 -41 32 -36 61 20 114
97 91 123 108 162 101 23 -4 46 -1 65 9 40 21 49 20 119 -12z m-1164 -62 c14
-26 3 -68 -20 -75 -56 -18 -101 35 -65 75 24 26 71 26 85 0z m1546 -45 c20
-30 13 -51 -21 -67 -38 -17 -75 3 -75 41 0 52 67 70 96 26z m-1608 -102 c16
-32 34 -137 30 -183 l-3 -45 -60 -8 c-33 -4 -82 -6 -110 -5 -50 3 -50 3 -48
36 1 22 14 48 40 78 21 26 50 63 65 83 42 55 48 61 63 61 8 0 18 -8 23 -17z
m853 -53 c35 -27 80 -61 99 -75 19 -14 56 -42 83 -61 54 -40 62 -76 25 -111
-39 -37 -301 -162 -318 -153 -8 4 -50 44 -92 88 -78 79 -78 80 -78 133 l0 54
77 72 c43 39 85 78 93 87 23 25 43 19 111 -34z m782 1 c16 -14 56 -62 89 -106
56 -75 59 -82 53 -120 -3 -22 -12 -49 -19 -60 -15 -21 -244 -145 -269 -145
-19 0 -203 144 -211 166 -8 20 -8 78 0 98 4 9 54 59 112 112 l105 95 56 -7
c41 -4 64 -13 84 -33z m-1125 -137 c41 -28 22 -94 -28 -94 -39 0 -65 36 -51
73 15 38 44 46 79 21z m-764 -52 c12 -24 12 -31 0 -55 -26 -50 -84 -31 -84 28
0 59 58 78 84 27z m1468 11 c36 -33 13 -93 -37 -93 -25 0 -55 33 -55 62 0 19
36 48 59 48 8 0 23 -7 33 -17z m-820 -51 c18 -15 46 -34 62 -42 32 -16 56 -64
83 -166 15 -56 15 -66 3 -78 -26 -25 -310 -166 -333 -166 -46 0 -66 37 -82
156 -8 60 -19 147 -26 193 -15 109 -11 114 114 122 51 3 104 6 119 7 17 1 40
-8 60 -26z m1509 18 c22 -12 27 -68 7 -88 -29 -29 -88 1 -88 44 0 43 40 65 81
44z m-1857 -42 c7 -18 16 -71 20 -118 4 -47 11 -101 15 -120 5 -19 12 -63 16
-98 6 -61 5 -64 -26 -92 -33 -32 -68 -38 -123 -20 -17 5 -52 12 -78 15 -41 5
-50 11 -70 43 -12 20 -33 45 -45 55 -22 17 -23 26 -23 136 l0 118 48 51 c47
52 47 52 117 55 39 2 85 4 103 5 29 2 35 -2 46 -30z m1153 -55 c59 -4 66 -8
137 -68 41 -35 77 -69 81 -76 11 -17 -21 -43 -110 -89 -44 -23 -100 -53 -125
-67 -30 -17 -58 -24 -85 -23 -22 1 -59 2 -83 1 -41 0 -48 4 -129 83 -76 74
-84 85 -74 104 6 11 61 46 123 77 62 31 118 61 123 67 6 5 26 7 45 3 19 -4 63
-9 97 -12z m-569 -56 c45 -45 52 -75 26 -102 -25 -25 -47 -14 -71 35 -29 57
-30 110 -3 110 3 0 25 -19 48 -43z m1197 19 c17 -12 19 -29 21 -152 1 -77 -1
-154 -4 -172 -6 -38 -24 -50 -47 -30 -19 17 -67 57 -125 104 -122 99 -129 106
-122 125 4 10 43 37 87 60 44 23 94 51 110 61 36 22 55 23 80 4z m-986 -230
c88 -88 93 -96 88 -126 -5 -21 -1 -44 13 -73 22 -45 25 -68 11 -95 -5 -9 -17
-38 -26 -64 -15 -44 -19 -48 -50 -48 -19 0 -36 4 -39 9 -3 5 -21 12 -40 15
-40 8 -70 43 -80 96 -4 19 -11 44 -16 55 -5 11 -25 73 -45 138 -37 116 -37
118 -19 139 20 22 69 47 94 48 9 0 58 -42 109 -94z m716 11 c33 -28 68 -59 77
-68 9 -9 38 -32 63 -50 37 -26 45 -38 43 -59 -2 -19 -8 -24 -23 -22 -40 7
-313 33 -428 41 -65 4 -121 12 -126 17 -12 12 5 54 21 54 7 0 25 6 39 14 34
18 143 78 198 109 24 14 51 23 60 20 9 -3 43 -29 76 -56z m-965 -53 c11 -26
20 -55 20 -65 0 -10 6 -33 14 -51 29 -69 48 -139 42 -154 -9 -24 -80 -9 -203
43 -17 7 -36 13 -42 13 -6 0 -19 4 -29 9 -9 5 -43 17 -75 27 -78 24 -95 37
-78 58 7 8 65 42 130 75 64 32 130 66 146 75 44 24 52 21 75 -30z m-848 -31
c22 -20 23 -41 1 -65 -32 -36 -83 -17 -83 32 0 48 45 67 82 33z m1320 -40 c22
-20 23 -41 1 -65 -33 -36 -93 -13 -93 37 0 42 57 59 92 28z m-888 -46 c32 -48
-14 -94 -70 -68 -26 11 -31 39 -14 72 15 27 65 25 84 -4z m1730 -23 c10 -4 16
-18 16 -40 0 -46 -36 -65 -75 -40 -58 38 -8 106 59 80z m-549 -19 c55 -8 141
-15 190 -16 122 -2 219 -19 223 -40 2 -10 -32 -46 -90 -96 -51 -44 -100 -86
-108 -95 -8 -8 -35 -29 -60 -47 -37 -27 -50 -31 -81 -26 -28 5 -48 1 -80 -16
-38 -19 -48 -20 -74 -10 -16 7 -82 30 -146 51 -192 64 -185 57 -148 164 25 70
35 86 58 86 9 0 31 14 50 30 30 27 41 30 100 30 36 0 111 -7 166 -15z m-1077
-55 c9 -5 64 -24 122 -43 318 -102 306 -95 328 -187 6 -25 16 -63 23 -86 14
-45 6 -92 -16 -101 -9 -3 -59 8 -113 25 -53 16 -125 38 -160 48 -56 16 -66 22
-88 60 -17 28 -39 49 -68 62 -35 17 -47 30 -66 73 -43 101 -51 131 -39 145 13
16 52 18 77 4z m555 -185 c43 -18 48 -31 36 -86 -20 -90 -49 -91 -78 -4 -17
50 -20 69 -11 85 13 24 9 24 53 5z m-511 -92 c22 -20 23 -42 2 -71 -18 -26
-50 -28 -76 -5 -22 20 -23 42 -2 71 18 26 50 28 76 5z m1122 -39 c32 -31 7
-94 -37 -94 -27 0 -57 28 -57 53 0 48 61 74 94 41z m-592 -106 c31 -24 27 -84
-7 -100 -50 -22 -88 50 -48 94 19 21 33 23 55 6z m0 -510 c31 -24 27 -74 -7
-90 -21 -9 -28 -8 -45 7 -49 44 0 123 52 83z m600 -12 c20 -29 -11 -86 -47
-86 -24 0 -57 39 -53 63 6 40 78 57 100 23z"/>
</g>
</svg>
