<?xml version="1.0" standalone="no"?>
<!DOCTYPE svg PUBLIC "-//W3C//DTD SVG 20010904//EN"
 "http://www.w3.org/TR/2001/REC-SVG-20010904/DTD/svg10.dtd">
<svg version="1.0" xmlns="http://www.w3.org/2000/svg"
 width="312.000000pt" height="168.000000pt" viewBox="0 0 312.000000 168.000000"
 preserveAspectRatio="xMidYMid meet">
<metadata>
Created by potrace 1.10, written by Peter Selinger 2001-2011
</metadata>
<g transform="translate(0.000000,168.000000) scale(0.100000,-0.100000)"
fill="#f40057" stroke="none">
<path d="M567 1381 c-35 -23 -51 -45 -67 -95 l-12 -38 -62 6 c-97 9 -309 10
-329 2 -26 -12 -22 -62 6 -79 17 -11 54 -12 177 -6 171 9 170 9 170 -54 0 -50
32 -110 77 -144 32 -24 45 -28 104 -28 68 0 68 0 116 48 l49 47 119 0 c66 0
126 -4 133 -9 8 -4 18 -27 23 -51 17 -76 58 -149 102 -181 22 -16 48 -29 57
-29 21 0 50 -31 50 -53 0 -9 -14 -31 -30 -49 -25 -27 -30 -41 -30 -82 0 -123
75 -254 175 -305 39 -21 67 -27 136 -29 79 -4 90 -2 146 26 108 55 169 148
179 276 6 68 5 72 -25 110 -17 21 -31 47 -31 57 0 22 26 49 48 49 51 1 152
123 152 182 0 11 7 35 16 54 l16 34 126 0 126 0 47 -46 c40 -40 52 -46 101
-51 109 -11 198 65 198 169 0 25 6 50 13 56 8 6 66 7 162 3 166 -8 195 -2 195
44 0 40 -32 54 -114 49 -39 -2 -120 -6 -179 -8 l-109 -5 -24 55 c-38 86 -102
114 -178 78 -32 -16 -49 -39 -74 -105 l-11 -27 -194 6 c-191 5 -195 5 -206
-17 -9 -16 -9 -26 0 -42 11 -21 16 -21 185 -17 160 3 175 2 180 -14 3 -10 3
-26 0 -36 -5 -16 -49 -17 -738 -17 l-733 0 -3 33 c-2 21 1 32 10 33 7 1 90 2
183 3 l170 1 0 35 0 35 -200 0 -199 0 -16 41 c-18 50 -35 71 -71 90 -38 19
-78 18 -112 -5z m94 -71 c29 -16 25 -58 -7 -66 -30 -8 -75 5 -81 23 -5 15 32
53 53 53 8 0 24 -5 35 -10z m1833 -6 c32 -31 11 -64 -41 -64 -34 0 -55 22 -45
50 11 33 60 41 86 14z m-1769 -134 c8 -7 15 -21 15 -33 0 -25 -36 -84 -60 -97
-24 -13 -76 -13 -101 0 -42 23 -66 119 -34 137 22 13 163 7 180 -7z m1826 -1
c12 -20 11 -33 -7 -77 -17 -43 -47 -62 -99 -62 -60 0 -114 86 -86 138 9 17 20
19 96 17 62 -1 89 -6 96 -16z m-614 -146 c4 -10 -22 -69 -52 -120 -36 -59 -57
-63 -348 -63 -295 0 -303 2 -350 77 -26 42 -49 102 -43 112 7 10 790 5 793 -6z
m-208 -278 c12 -12 13 -19 5 -33 -10 -15 -32 -17 -194 -17 -166 0 -184 2 -194
18 -9 15 -7 22 10 35 17 15 43 17 189 15 137 -2 172 -5 184 -18z m-331 -131
c16 -11 21 -24 20 -52 -3 -94 91 -157 176 -117 44 21 78 80 71 122 -7 36 4 51
41 59 21 4 37 0 54 -14 23 -18 23 -21 12 -78 -38 -187 -253 -268 -382 -143
-55 54 -80 107 -80 173 0 34 5 56 13 59 24 10 53 7 75 -9z m190 -12 c18 -23
15 -49 -8 -72 -27 -27 -55 -25 -79 6 -27 34 -26 40 4 70 27 27 59 26 83 -4z"/>
</g>
</svg>
